<svg width="28" height="28" viewBox="0 0 28 28" fill="none" xmlns="http://www.w3.org/2000/svg">
<rect width="28" height="28" rx="14" fill="#FC0061"/>
<path d="M9.00499 14.0057C8.90086 13.6669 8.77294 13.0761 8.77294 13.0761H8.75806C8.75806 13.0761 8.63014 13.6669 8.52601 14.0057L8.19579 15.0557H9.32926L9.00499 14.0057ZM22.806 10.0801H14.476V19.0401H22.806C23.2017 19.0401 23.52 18.7405 23.52 18.3681V10.7521C23.52 10.3797 23.2017 10.0801 22.806 10.0801ZM22.092 13.4401C22.092 13.6249 21.9314 13.7761 21.735 13.7761H21.3959C21.1906 14.4369 20.7503 15.1033 20.1255 15.7333C20.3754 15.9125 20.6343 16.0833 20.902 16.2373C21.0656 16.3325 21.1192 16.5313 21.024 16.6909L20.789 17.0801C20.6878 17.2453 20.4647 17.2985 20.2921 17.2005C19.9173 16.9821 19.5633 16.7497 19.239 16.5033C18.9147 16.7469 18.5637 16.9821 18.1858 17.2005C18.0133 17.2985 17.7902 17.2453 17.689 17.0801L17.454 16.6909C17.3588 16.5341 17.4123 16.3325 17.5789 16.2373C17.8556 16.0777 18.1144 15.9097 18.3554 15.7333C18.1204 15.4981 17.9121 15.2573 17.7307 15.0137C17.6117 14.8541 17.6652 14.6329 17.8407 14.5349L18.0341 14.4257L18.2513 14.3053C18.4119 14.2157 18.6202 14.2577 18.7273 14.4005C18.876 14.5965 19.0486 14.7925 19.2449 14.9857C19.6466 14.5881 19.953 14.1765 20.1374 13.7761H16.737C16.5407 13.7761 16.38 13.6249 16.38 13.4401V12.9921C16.38 12.8073 16.5407 12.6561 16.737 12.6561H18.641V12.2081C18.641 12.0233 18.8017 11.8721 18.998 11.8721H19.474C19.6704 11.8721 19.831 12.0233 19.831 12.2081V12.6561H21.735C21.9314 12.6561 22.092 12.8073 22.092 12.9921V13.4401ZM4.48001 10.7521V18.3681C4.48001 18.7405 4.79834 19.0401 5.19401 19.0401H13.524V10.0801H5.19401C4.79834 10.0801 4.48001 10.3797 4.48001 10.7521ZM6.23229 16.8029L7.94291 12.0681C7.99349 11.9309 8.12736 11.8413 8.28206 11.8413H9.24894C9.40066 11.8413 9.53751 11.9337 9.58809 12.0681L11.2987 16.8029C11.3761 17.0213 11.2065 17.2481 10.9596 17.2481H10.2783C10.2013 17.248 10.1264 17.2246 10.0647 17.1812C10.0031 17.1378 9.95797 17.0768 9.93616 17.0073L9.65651 16.1141H7.86556L7.59484 17.0045C7.55021 17.1473 7.41039 17.2481 7.25271 17.2481H6.57144C6.32749 17.2481 6.15494 17.0213 6.23229 16.8029Z" fill="black"/>
</svg>
