<svg width="22" height="22" viewBox="0 0 22 22" fill="none" xmlns="http://www.w3.org/2000/svg">
<path d="M19.7065 10.9966L21.6824 9.06279C22.2714 8.50519 21.9967 7.51424 21.2242 7.32947L18.5322 6.6424L19.291 3.97769C19.5055 3.21121 18.7828 2.48826 18.0165 2.70276L15.3527 3.46189L14.6659 0.768989C14.4841 0.00848398 13.4821 -0.269653 12.9332 0.310598L11 2.30186L9.0669 0.310641C8.5242 -0.263036 7.518 -0.000195794 7.33418 0.769032L6.64736 3.46193L3.98351 2.7028C3.21708 2.48822 2.4946 3.21142 2.70901 3.97773L3.46788 6.64244L0.775887 7.32951C0.00296339 7.51432 -0.271135 8.50544 0.317624 9.06279L2.29355 10.9966L0.317624 12.9304C-0.271393 13.488 0.00326425 14.4789 0.775844 14.6637L3.46784 15.3508L2.70897 18.0155C2.49451 18.782 3.21725 19.5049 3.98347 19.2904L6.64728 18.5313L7.33409 21.2242C7.52483 22.0223 8.52416 22.2562 9.06681 21.6826L11 19.706L12.9331 21.6826C13.4703 22.2621 14.4795 22.0042 14.6659 21.2242L15.3527 18.5313L18.0165 19.2904C18.7829 19.505 19.5054 18.7818 19.291 18.0155L18.5321 15.3508L21.2241 14.6637C21.997 14.4788 22.2711 13.4878 21.6823 12.9304L19.7065 10.9966Z" fill="#0C74FF"/>
<g clip-path="url(#clip0)">
<path d="M10.225 10.9996C11.7163 10.9996 12.925 9.79094 12.925 8.29961C12.925 6.80828 11.7163 5.59961 10.225 5.59961C8.73367 5.59961 7.525 6.80828 7.525 8.29961C7.525 9.79094 8.73367 10.9996 10.225 10.9996ZM12.115 11.6746H11.7627C11.2945 11.8898 10.7734 12.0121 10.225 12.0121C9.67656 12.0121 9.15766 11.8898 8.68727 11.6746H8.335C6.76984 11.6746 5.5 12.9445 5.5 14.5096V15.3871C5.5 15.9461 5.95352 16.3996 6.5125 16.3996H13.9375C14.4965 16.3996 14.95 15.9461 14.95 15.3871V14.5096C14.95 12.9445 13.6802 11.6746 12.115 11.6746ZM18.9283 8.96617L18.3419 8.37344C18.2448 8.2743 18.0866 8.2743 17.9875 8.37133L15.7769 10.5651L14.8171 9.59898C14.7201 9.49984 14.5619 9.49984 14.4627 9.59687L13.87 10.1854C13.7709 10.2824 13.7709 10.4406 13.8679 10.5398L15.5912 12.2758C15.6883 12.3749 15.8465 12.3749 15.9456 12.2779L18.9262 9.32055C19.0232 9.22141 19.0253 9.0632 18.9283 8.96617Z" fill="black"/>
</g>
<defs>
<clipPath id="clip0">
<rect width="13.5" height="13.5" fill="white" transform="translate(5.5 4.25)"/>
</clipPath>
</defs>
</svg>
